<svg xmlns="http://www.w3.org/2000/svg" width="62.5" height="50" viewBox="0 0 62.5 50">
  <path id="Icon_awesome-chalkboard-teacher" data-name="Icon awesome-chalkboard-teacher" d="M20.313,34.375a2.234,2.234,0,0,0-.689.106,12.882,12.882,0,0,1-4,.675,12.893,12.893,0,0,1-4-.675,2.228,2.228,0,0,0-.688-.106A10.938,10.938,0,0,0,0,45.373,4.675,4.675,0,0,0,4.688,50H26.563a4.675,4.675,0,0,0,4.688-4.627A10.938,10.938,0,0,0,20.313,34.375ZM15.625,31.25A9.375,9.375,0,1,0,6.25,21.875,9.375,9.375,0,0,0,15.625,31.25ZM57.813,0h-37.5a4.773,4.773,0,0,0-4.688,4.843V9.375a12.358,12.358,0,0,1,6.25,1.738V6.25H56.25V34.375H50v-6.25H37.5v6.25H30.055a12.446,12.446,0,0,1,3.876,6.25H57.813A4.773,4.773,0,0,0,62.5,35.782V4.843A4.773,4.773,0,0,0,57.813,0Z" transform="translate(0)" fill="#fff"/>
</svg>
