<svg xmlns="http://www.w3.org/2000/svg" width="25" height="25" viewBox="0 0 25 25">
  <path id="Icon_material-live-help" data-name="Icon material-live-help" d="M26.722,3H7.278A2.6,2.6,0,0,0,4.5,5.381V22.048a2.6,2.6,0,0,0,2.778,2.381h5.556L17,28l4.167-3.571h5.556A2.61,2.61,0,0,0,29.5,22.048V5.381A2.61,2.61,0,0,0,26.722,3ZM18.389,22.048H15.611V19.667h2.778Zm2.875-9.226-1.25,1.1a3.815,3.815,0,0,0-1.625,3.369H15.611v-.6a4.475,4.475,0,0,1,1.625-3.369l1.722-1.5a2.178,2.178,0,0,0,.819-1.679A2.61,2.61,0,0,0,17,7.762a2.61,2.61,0,0,0-2.778,2.381H11.444c0-2.631,2.486-4.762,5.556-4.762s5.556,2.131,5.556,4.762a3.539,3.539,0,0,1-1.292,2.679Z" transform="translate(-4.5 -3)" fill="#fff"/>
</svg>
