<svg xmlns="http://www.w3.org/2000/svg" width="15.262" height="11.631" viewBox="0 0 15.262 11.631">
  <path id="Icon_awesome-sign-out-alt" data-name="Icon awesome-sign-out-alt" d="M15.051,10.828,9.963,15.916A.728.728,0,0,1,8.722,15.4V12.494H4.6a.725.725,0,0,1-.727-.727V8.86A.725.725,0,0,1,4.6,8.133H8.722V5.226a.728.728,0,0,1,1.242-.515L15.051,9.8A.733.733,0,0,1,15.051,10.828ZM5.814,15.765V14.553a.364.364,0,0,0-.363-.363H2.907a.968.968,0,0,1-.969-.969V7.406a.968.968,0,0,1,.969-.969H5.451a.364.364,0,0,0,.363-.363V4.863A.364.364,0,0,0,5.451,4.5H2.907A2.908,2.908,0,0,0,0,7.406v5.814a2.908,2.908,0,0,0,2.907,2.907H5.451A.364.364,0,0,0,5.814,15.765Z" transform="translate(0 -4.499)" fill="#fff"/>
</svg>
