<svg xmlns="http://www.w3.org/2000/svg" width="12.582" height="12.582" viewBox="0 0 12.582 12.582">
  <path id="Icon_awesome-user-circle" data-name="Icon awesome-user-circle" d="M6.291.563a6.291,6.291,0,1,0,6.291,6.291A6.29,6.29,0,0,0,6.291.563ZM6.291,3A2.232,2.232,0,1,1,4.059,5.23,2.232,2.232,0,0,1,6.291,3Zm0,8.726a4.861,4.861,0,0,1-3.716-1.73,2.828,2.828,0,0,1,2.5-1.517.621.621,0,0,1,.18.028,3.359,3.359,0,0,0,1.038.175A3.346,3.346,0,0,0,7.329,8.5a.621.621,0,0,1,.18-.028,2.828,2.828,0,0,1,2.5,1.517A4.861,4.861,0,0,1,6.291,11.724Z" transform="translate(0 -0.563)" fill="#fff"/>
</svg>
