<svg xmlns="http://www.w3.org/2000/svg" width="12.239" height="12.582" viewBox="0 0 12.239 12.582">
  <path id="Icon_material-settings" data-name="Icon material-settings" d="M14.2,9.908a4.338,4.338,0,0,0,0-1.233l1.327-1.038a.317.317,0,0,0,.075-.4L14.346,5.057a.316.316,0,0,0-.384-.138L12.4,5.548a4.6,4.6,0,0,0-1.063-.617l-.239-1.667A.307.307,0,0,0,10.785,3H8.269a.307.307,0,0,0-.308.264L7.721,4.931a4.833,4.833,0,0,0-1.063.617L5.092,4.919a.307.307,0,0,0-.384.138L3.45,7.234a.31.31,0,0,0,.075.4L4.853,8.675a4.989,4.989,0,0,0-.044.617,4.989,4.989,0,0,0,.044.617L3.525,10.946a.317.317,0,0,0-.075.4l1.258,2.177a.316.316,0,0,0,.384.138l1.566-.629a4.6,4.6,0,0,0,1.063.617l.239,1.667a.307.307,0,0,0,.308.264h2.516a.307.307,0,0,0,.308-.264l.239-1.667a4.833,4.833,0,0,0,1.063-.617l1.566.629a.307.307,0,0,0,.384-.138L15.6,11.348a.317.317,0,0,0-.075-.4L14.2,9.908ZM9.527,11.493a2.2,2.2,0,1,1,2.2-2.2A2.2,2.2,0,0,1,9.527,11.493Z" transform="translate(-3.406 -3)" fill="#fff"/>
</svg>
