<svg xmlns="http://www.w3.org/2000/svg" width="21.874" height="25" viewBox="0 0 21.874 25">
  <path id="Icon_awesome-user-graduate" data-name="Icon awesome-user-graduate" d="M15.595,15.653l-4.658,4.658L6.279,15.653A6.547,6.547,0,0,0,0,22.186v.469A2.344,2.344,0,0,0,2.344,25H19.53a2.344,2.344,0,0,0,2.344-2.344v-.469a6.547,6.547,0,0,0-6.279-6.533ZM.664,3.9l.312.073V6.82A1.128,1.128,0,0,0,.933,8.773L.171,11.815c-.083.337.1.684.371.684H2.583c.269,0,.454-.347.371-.684L2.192,8.773A1.128,1.128,0,0,0,2.148,6.82V4.252l3.222.776A6.238,6.238,0,1,0,17.187,7.812,6.138,6.138,0,0,0,16.5,5.029l4.7-1.133a.777.777,0,0,0,0-1.538L11.909.112a4.194,4.194,0,0,0-1.938,0L.664,2.353a.78.78,0,0,0,0,1.543Z" transform="translate(0 0.002)" fill="#fff"/>
</svg>
