<svg
  width="68"
  height="33"
  viewBox="0 0 68 33"
  fill="none"
  xmlns="http://www.w3.org/2000/svg"
>
  <path
    d="M41.4272 22.1992C41.2429 22.1992 41.0586 22.1286 40.9179 21.9874L29.4726 10.5002C29.1912 10.2177 29.1912 9.76019 29.4726 9.47775C29.754 9.19532 30.2099 9.19532 30.4913 9.47775L41.9366 20.965C42.218 21.2474 42.218 21.705 41.9366 21.9874C41.7959 22.1286 41.6116 22.1992 41.4272 22.1992Z"
    fill="black"
  />
  <path
    d="M46.7176 22.1992C46.5333 22.1992 46.3489 22.1286 46.2082 21.9874C45.9268 21.705 45.9268 21.2474 46.2082 20.965L59.3835 7.74149C59.6649 7.45905 60.1208 7.45905 60.4022 7.74149C60.6836 8.02392 60.6836 8.48146 60.4022 8.76389L47.2269 21.9874C47.0862 22.1286 46.9019 22.1992 46.7176 22.1992Z"
    fill="black"
  />
  <path
    d="M7.35796 25.7226C7.17364 25.7226 6.98933 25.652 6.84862 25.5107C6.56722 25.2283 6.56722 24.7701 6.84862 24.4883L21.8206 9.47775C22.102 9.19532 22.5579 9.19532 22.8393 9.47775C23.1207 9.76019 23.1207 10.2184 22.8393 10.5002L7.8673 25.5107C7.7266 25.652 7.54228 25.7226 7.35796 25.7226Z"
    fill="black"
  />
  <path
    d="M26.1556 12.2985C24.515 12.2985 22.9757 11.6602 21.8206 10.5008C20.6647 9.34005 20.0287 7.79514 20.0287 6.14926C20.0287 2.75866 22.7773 0 26.1556 0C29.5345 0 32.2831 2.75866 32.2831 6.14926C32.2831 7.75207 31.6316 9.33652 30.4955 10.4966C29.3361 11.6602 27.7968 12.2985 26.1556 12.2985ZM26.1556 1.44606C23.5716 1.44606 21.4695 3.55583 21.4695 6.14926C21.4695 7.40891 21.9564 8.5916 22.8392 9.47844C24.605 11.2514 27.7068 11.25 29.4726 9.47844C30.3414 8.59089 30.8423 7.37573 30.8423 6.14926C30.8423 3.55583 28.7395 1.44606 26.1556 1.44606Z"
    fill="black"
  />
  <path
    d="M44.0725 28.6111C41.6109 28.6111 39.6088 26.6016 39.6088 24.131C39.6088 22.9378 40.0738 21.813 40.918 20.965C42.6043 19.2718 45.5365 19.269 47.227 20.965C48.0712 21.813 48.5355 22.9371 48.5355 24.131C48.5355 26.6016 46.5334 28.6111 44.0725 28.6111ZM44.0725 21.0977C43.267 21.0977 42.5086 21.4133 41.9367 21.9874C41.3647 22.5621 41.0495 23.3233 41.0495 24.131C41.0495 25.8038 42.4059 27.1651 44.0725 27.1651C45.7391 27.1651 47.0948 25.8038 47.0948 24.131C47.0948 23.3233 46.7796 22.5614 46.2083 21.9874C45.6364 21.414 44.8773 21.0977 44.0725 21.0977Z"
    fill="black"
  />
  <path
    d="M4.61288 32.3844C2.06901 32.3844 0 30.3071 0 27.754C0 25.2008 2.06901 23.1242 4.61288 23.1242C5.85597 23.1242 7.01394 23.6107 7.87362 24.4947C8.74104 25.3448 9.22576 26.5063 9.22576 27.754C9.22576 30.3071 7.15675 32.3844 4.61288 32.3844ZM4.61288 24.5702C2.86397 24.5702 1.44078 25.9986 1.44078 27.754C1.44078 29.51 2.86397 30.9384 4.61288 30.9384C6.36179 30.9384 7.78498 29.51 7.78498 27.754C7.78498 26.8989 7.45433 26.1045 6.85495 25.5171C6.25627 24.9021 5.46482 24.5702 4.61288 24.5702Z"
    fill="black"
  />
  <path
    d="M62.837 10.1944C61.5489 10.1944 60.3241 9.68816 59.3892 8.76954C58.4774 7.85446 57.9575 6.59128 57.9575 5.29774C57.9575 2.59698 60.1461 0.40036 62.837 0.40036C65.5279 0.40036 67.7165 2.59698 67.7165 5.29774C67.7165 7.9978 65.5279 10.1944 62.837 10.1944ZM62.837 1.84642C60.9411 1.84642 59.3983 3.39485 59.3983 5.29774C59.3983 6.21071 59.7641 7.10107 60.4022 7.74149C61.0614 8.38897 61.9281 8.74836 62.837 8.74836C64.733 8.74836 66.2758 7.20063 66.2758 5.29774C66.2758 3.39485 64.733 1.84642 62.837 1.84642Z"
    fill="black"
  />
</svg>
