<svg
  width="550"
  height="450"
  viewBox="0 0 790 603"
  fill="none"
  xmlns="http://www.w3.org/2000/svg"
>
  <path
    fill-rule="evenodd"
    clip-rule="evenodd"
    d="M422.372 468.704C355.535 492.539 288.34 509.318 229.111 507.921C174.482 506.632 134.53 487.857 107.135 461.267C82.0663 436.934 90.129 398.314 82.163 365.288C71.5364 321.232 10.5366 288.514 52.7244 235.691C94.172 183.795 190.659 168.666 263.72 137.961C328.682 110.66 391.574 76.6929 455.701 66.3353C526.636 54.878 593.467 56.0199 639.871 77.2064C690.08 100.13 720.802 138.658 722.494 188.144C724.277 240.269 708.748 302.6 649.474 358.011C592.033 411.708 502.69 440.061 422.372 468.704Z"
    fill="#F9B953"
    fill-opacity="0.5"
  />
</svg>
