<svg
  width="40"
  height="30"
  viewBox="0 0 56 44"
  fill="none"
  xmlns="http://www.w3.org/2000/svg"
>
  <path
    d="M13.8299 0.00935417C13.4432 0.0518399 13.0866 0.237606 12.8301 0.53004C12.5737 0.822473 12.4361 1.20036 12.4444 1.58922V3.92255H4.66667C2.10824 3.92255 0 6.03079 0 8.58921V38.9225C0 41.481 2.10824 43.5892 4.66667 43.5892H51.3333C53.8918 43.5892 56 41.481 56 38.9225V8.58921C56 6.03079 53.8918 3.92255 51.3333 3.92255H43.5556V1.58922C43.5603 1.36777 43.5178 1.14786 43.4307 0.944198C43.3436 0.740533 43.2141 0.557807 43.0507 0.408242C42.8873 0.258677 42.6939 0.145722 42.4834 0.0769317C42.2728 0.00814142 42.05 -0.0148986 41.8299 0.00935417C41.4432 0.0518399 41.0866 0.237606 40.8301 0.53004C40.5737 0.822473 40.4361 1.20036 40.4444 1.58922V3.92255H15.5556V1.58922C15.5603 1.36777 15.5178 1.14786 15.4307 0.944198C15.3436 0.740533 15.2141 0.557807 15.0507 0.408242C14.8873 0.258677 14.6939 0.145722 14.4834 0.0769317C14.2728 0.00814142 14.05 -0.0148986 13.8299 0.00935417ZM4.66667 7.03366H12.4444V9.36699C12.4415 9.57312 12.4796 9.77778 12.5565 9.96906C12.6333 10.1603 12.7475 10.3344 12.8922 10.4812C13.0369 10.628 13.2094 10.7446 13.3996 10.8242C13.5898 10.9037 13.7938 10.9447 14 10.9447C14.2062 10.9447 14.4102 10.9037 14.6004 10.8242C14.7906 10.7446 14.9631 10.628 15.1078 10.4812C15.2525 10.3344 15.3667 10.1603 15.4435 9.96906C15.5204 9.77778 15.5585 9.57312 15.5556 9.36699V7.03366H40.4444V9.36699C40.4415 9.57312 40.4796 9.77778 40.5565 9.96906C40.6333 10.1603 40.7475 10.3344 40.8922 10.4812C41.0369 10.628 41.2094 10.7446 41.3996 10.8242C41.5898 10.9037 41.7938 10.9447 42 10.9447C42.2062 10.9447 42.4102 10.9037 42.6004 10.8242C42.7906 10.7446 42.9631 10.628 43.1078 10.4812C43.2525 10.3344 43.3667 10.1603 43.4435 9.96906C43.5204 9.77778 43.5585 9.57312 43.5556 9.36699V7.03366H51.3333C52.222 7.03366 52.8889 7.70053 52.8889 8.58921V13.2559H3.11111V8.58921C3.11111 7.70053 3.77798 7.03366 4.66667 7.03366ZM3.11111 16.367H52.8889V38.9225C52.8889 39.8112 52.222 40.4781 51.3333 40.4781H4.66667C3.77798 40.4781 3.11111 39.8112 3.11111 38.9225V16.367ZM18.6667 21.0337C17.374 21.0337 16.3333 22.0743 16.3333 23.367C16.3333 24.6597 17.374 25.7003 18.6667 25.7003C19.9593 25.7003 21 24.6597 21 23.367C21 22.0743 19.9593 21.0337 18.6667 21.0337ZM28 21.0337C26.7073 21.0337 25.6667 22.0743 25.6667 23.367C25.6667 24.6597 26.7073 25.7003 28 25.7003C29.2927 25.7003 30.3333 24.6597 30.3333 23.367C30.3333 22.0743 29.2927 21.0337 28 21.0337ZM37.3333 21.0337C36.0407 21.0337 35 22.0743 35 23.367C35 24.6597 36.0407 25.7003 37.3333 25.7003C38.626 25.7003 39.6667 24.6597 39.6667 23.367C39.6667 22.0743 38.626 21.0337 37.3333 21.0337ZM46.6667 21.0337C45.374 21.0337 44.3333 22.0743 44.3333 23.367C44.3333 24.6597 45.374 25.7003 46.6667 25.7003C47.9593 25.7003 49 24.6597 49 23.367C49 22.0743 47.9593 21.0337 46.6667 21.0337ZM9.33333 31.1448C8.04067 31.1448 7 32.1854 7 33.4781C7 34.7708 8.04067 35.8114 9.33333 35.8114C10.626 35.8114 11.6667 34.7708 11.6667 33.4781C11.6667 32.1854 10.626 31.1448 9.33333 31.1448ZM18.6667 31.1448C17.374 31.1448 16.3333 32.1854 16.3333 33.4781C16.3333 34.7708 17.374 35.8114 18.6667 35.8114C19.9593 35.8114 21 34.7708 21 33.4781C21 32.1854 19.9593 31.1448 18.6667 31.1448ZM28 31.1448C26.7073 31.1448 25.6667 32.1854 25.6667 33.4781C25.6667 34.7708 26.7073 35.8114 28 35.8114C29.2927 35.8114 30.3333 34.7708 30.3333 33.4781C30.3333 32.1854 29.2927 31.1448 28 31.1448ZM37.3333 31.1448C36.0407 31.1448 35 32.1854 35 33.4781C35 34.7708 36.0407 35.8114 37.3333 35.8114C38.626 35.8114 39.6667 34.7708 39.6667 33.4781C39.6667 32.1854 38.626 31.1448 37.3333 31.1448Z"
    fill="black"
  />
</svg>
