<svg
  width="56"
  height="55"
  viewBox="0 0 56 55"
  fill="none"
  xmlns="http://www.w3.org/2000/svg"
>
  <path
    d="M9.59398 16.25C12.6839 16.25 15.1985 13.7262 15.1985 10.625C15.1985 7.52375 12.6839 5 9.59398 5C6.50405 5 3.98951 7.52375 3.98951 10.625C3.98951 13.7262 6.50405 16.25 9.59398 16.25ZM9.59398 7.5C11.3114 7.5 12.7076 8.9025 12.7076 10.625C12.7076 12.3475 11.3114 13.75 9.59398 13.75C7.87652 13.75 6.48039 12.3475 6.48039 10.625C6.48039 8.9025 7.87652 7.5 9.59398 7.5ZM46.9571 16.25C50.0471 16.25 52.5616 13.7262 52.5616 10.625C52.5616 7.52375 50.0471 5 46.9571 5C43.8672 5 41.3526 7.52375 41.3526 10.625C41.3526 13.7262 43.8672 16.25 46.9571 16.25ZM46.9571 7.5C48.6746 7.5 50.0707 8.9025 50.0707 10.625C50.0707 12.3475 48.6746 13.75 46.9571 13.75C45.2397 13.75 43.8435 12.3475 43.8435 10.625C43.8435 8.9025 45.2397 7.5 46.9571 7.5ZM28.2756 13.75C32.0517 13.75 35.1255 10.6663 35.1255 6.875C35.1255 3.08375 32.0517 0 28.2756 0C24.4994 0 21.4256 3.08375 21.4256 6.875C21.4256 10.6663 24.4994 13.75 28.2756 13.75ZM28.2756 2.5C30.6792 2.5 32.6346 4.4625 32.6346 6.875C32.6346 9.2875 30.6792 11.25 28.2756 11.25C25.8719 11.25 23.9165 9.2875 23.9165 6.875C23.9165 4.4625 25.8719 2.5 28.2756 2.5ZM54.4297 28.75H53.1843V21.25C53.1843 19.1825 51.5079 17.5 49.448 17.5H44.4662C42.4063 17.5 40.7299 19.1825 40.7299 21.25V28.75H38.2391V20C38.2391 17.2425 36.0047 15 33.2573 15H23.2938C20.5464 15 18.312 17.2425 18.312 20V28.75H15.8212V21.25C15.8212 19.1825 14.1448 17.5 12.0849 17.5H7.10311C5.04315 17.5 3.36679 19.1825 3.36679 21.25V28.75H2.12135C1.43263 28.75 0.875916 29.31 0.875916 30V46.25V53.75C0.875916 54.44 1.43263 55 2.12135 55C2.81008 55 3.36679 54.44 3.36679 53.75V47.5H53.1843V53.75C53.1843 54.44 53.741 55 54.4297 55C55.1185 55 55.6752 54.44 55.6752 53.75V46.25V30C55.6752 29.31 55.1185 28.75 54.4297 28.75ZM43.2208 21.25C43.2208 20.5613 43.7788 20 44.4662 20H49.448C50.1355 20 50.6934 20.5613 50.6934 21.25V28.75H43.2208V21.25ZM20.8029 20C20.8029 18.6213 21.9201 17.5 23.2938 17.5H33.2573C34.631 17.5 35.7482 18.6213 35.7482 20V28.75H20.8029V20ZM5.85767 21.25C5.85767 20.5613 6.41562 20 7.10311 20H12.0849C12.7723 20 13.3303 20.5613 13.3303 21.25V28.75H5.85767V21.25ZM3.36679 31.25H4.61223H14.5757H19.5575H36.9936H41.9754H51.9389H53.1843V45H3.36679V31.25Z"
    fill="black"
  />
</svg>
