<svg
  width="58"
  height="35"
  viewBox="0 0 58 35"
  fill="none"
  xmlns="http://www.w3.org/2000/svg"
>
  <path
    d="M0.902942 0H56.8854C57.384 0 57.7883 0.405761 57.7883 0.90625V33.2245C57.7883 33.725 57.384 34.1307 56.8854 34.1307H0.902942C0.40428 34.1307 0 33.725 0 33.2245V0.90625C0 0.405761 0.40428 0 0.902942 0ZM55.9824 1.8125H1.80588V32.3182H55.9824V1.8125Z"
    fill="black"
  />
  <path
    d="M0.902967 0H56.8854C57.384 0 57.7883 0.405761 57.7883 0.90625V0.985502C57.7883 1.28378 57.6447 1.54843 57.4231 1.71358L28.8586 26.081L28.8599 26.0826C28.4921 26.3963 27.9465 26.3629 27.619 26.0146L0.306877 1.67549L0.902943 0.999328L0.303455 1.67701C0.102603 1.49803 0.000133949 1.24926 8.88022e-05 0.999328H0V0.906339C0 0.40585 0.40428 8.91275e-05 0.902942 8.91275e-05L0.902986 0H0.902967ZM54.5248 1.8125H3.17037L28.2869 24.1952L54.5248 1.8125Z"
    fill="black"
  />
</svg>
