<svg
  width="319"
  height="194"
  viewBox="0 0 319 194"
  fill="none"
  xmlns="http://www.w3.org/2000/svg"
>
  <rect
    y="-21"
    width="186"
    height="215"
    rx="8"
    fill="#F9B953"
    fill-opacity="0.7"
  />
  <path
    d="M68.0606 125.805H77.7064V128H65.3625V107.646H68.0606V125.805ZM92.273 118.592H83.4519V125.805H93.6989V128H80.7679V107.646H93.5591V109.855H83.4519V116.397H92.273V118.592ZM103.778 124.435L109.594 107.646H112.529L104.98 128H102.604L95.0689 107.646H97.9906L103.778 124.435ZM126.774 118.592H117.953V125.805H128.2V128H115.269V107.646H128.06V109.855H117.953V116.397H126.774V118.592ZM134.239 125.805H143.885V128H131.541V107.646H134.239V125.805ZM160.521 107.646V121.486C160.511 123.405 159.906 124.976 158.703 126.197C157.51 127.418 155.889 128.103 153.838 128.252L153.126 128.28C150.898 128.28 149.123 127.678 147.799 126.476C146.476 125.274 145.805 123.62 145.786 121.514V107.646H148.442V121.43C148.442 122.902 148.848 124.048 149.659 124.869C150.469 125.679 151.625 126.085 153.126 126.085C154.645 126.085 155.805 125.679 156.606 124.869C157.417 124.058 157.823 122.916 157.823 121.444V107.646H160.521ZM167.44 120.032V128H164.756V107.646H172.263C174.491 107.646 176.234 108.214 177.492 109.351C178.759 110.488 179.393 111.994 179.393 113.867C179.393 115.843 178.773 117.366 177.534 118.438C176.303 119.5 174.537 120.032 172.235 120.032H167.44ZM167.44 117.837H172.263C173.699 117.837 174.798 117.501 175.563 116.83C176.327 116.15 176.709 115.172 176.709 113.895C176.709 112.683 176.327 111.714 175.563 110.987C174.798 110.26 173.75 109.883 172.417 109.855H167.44V117.837ZM193.89 122.506L194.519 125.665L195.288 122.646L199.705 107.646H201.257L205.618 122.646L206.373 125.693L207.044 122.506L210.721 107.646H212.482L207.268 128H205.618L201.005 112.077L200.488 110.064L199.985 112.077L195.26 128H193.61L188.41 107.646H190.171L193.89 122.506ZM230.837 118.927C230.837 120.801 230.511 122.445 229.859 123.862C229.216 125.279 228.293 126.369 227.091 127.133C225.889 127.897 224.5 128.28 222.925 128.28C220.548 128.28 218.629 127.432 217.165 125.735C215.702 124.03 214.971 121.733 214.971 118.843V116.747C214.971 114.892 215.297 113.252 215.949 111.826C216.611 110.391 217.543 109.291 218.745 108.527C219.947 107.753 221.331 107.366 222.897 107.366C224.463 107.366 225.842 107.744 227.035 108.499C228.237 109.254 229.164 110.321 229.817 111.7C230.469 113.079 230.809 114.678 230.837 116.495V118.927ZM229.118 116.719C229.118 114.268 228.563 112.348 227.454 110.959C226.345 109.57 224.826 108.876 222.897 108.876C221.005 108.876 219.495 109.575 218.368 110.973C217.249 112.362 216.69 114.305 216.69 116.802V118.927C216.69 121.341 217.249 123.256 218.368 124.673C219.486 126.08 221.005 126.784 222.925 126.784C224.873 126.784 226.392 126.089 227.482 124.701C228.573 123.303 229.118 121.36 229.118 118.871V116.719ZM242.776 119.528H236.862V128H235.129V107.646H241.741C243.913 107.646 245.609 108.172 246.83 109.226C248.051 110.279 248.661 111.751 248.661 113.643C248.661 114.948 248.279 116.099 247.515 117.096C246.751 118.093 245.725 118.783 244.439 119.165L249.528 127.818V128H247.697L242.776 119.528ZM236.862 118.061H242.133C243.577 118.061 244.738 117.651 245.614 116.83C246.49 116.01 246.928 114.948 246.928 113.643C246.928 112.208 246.471 111.094 245.558 110.302C244.644 109.51 243.363 109.114 241.713 109.114H236.862V118.061ZM257.929 117.893L255.064 120.717V128H253.344V107.646H255.064V118.62L265.492 107.646H267.659L259.132 116.705L268.316 128H266.219L257.929 117.893ZM282.925 122.995C282.925 121.868 282.529 120.978 281.737 120.325C280.944 119.664 279.495 119.039 277.389 118.452C275.283 117.856 273.745 117.208 272.776 116.509C271.396 115.521 270.707 114.226 270.707 112.623C270.707 111.066 271.345 109.803 272.622 108.834C273.908 107.856 275.548 107.366 277.543 107.366C278.894 107.366 280.101 107.627 281.163 108.149C282.235 108.671 283.065 109.398 283.652 110.33C284.239 111.262 284.532 112.301 284.532 113.447H282.799C282.799 112.059 282.324 110.945 281.373 110.106C280.422 109.258 279.146 108.834 277.543 108.834C275.986 108.834 274.747 109.184 273.824 109.883C272.902 110.572 272.44 111.476 272.44 112.595C272.44 113.629 272.855 114.473 273.684 115.125C274.514 115.777 275.842 116.355 277.668 116.858C279.495 117.352 280.879 117.87 281.82 118.41C282.762 118.941 283.47 119.58 283.945 120.325C284.421 121.071 284.658 121.952 284.658 122.967C284.658 124.57 284.015 125.856 282.729 126.826C281.452 127.795 279.765 128.28 277.668 128.28C276.233 128.28 274.915 128.023 273.712 127.511C272.519 126.998 271.611 126.281 270.986 125.358C270.371 124.435 270.064 123.377 270.064 122.185H271.783C271.783 123.62 272.319 124.752 273.391 125.582C274.463 126.411 275.888 126.826 277.668 126.826C279.253 126.826 280.525 126.476 281.485 125.777C282.445 125.078 282.925 124.151 282.925 122.995Z"
    fill="black"
  />
  <path
    d="M68.0606 125.805H77.7064V128H65.3625V107.646H68.0606V125.805ZM92.273 118.592H83.4519V125.805H93.6989V128H80.7679V107.646H93.5591V109.855H83.4519V116.397H92.273V118.592ZM103.778 124.435L109.594 107.646H112.529L104.98 128H102.604L95.0689 107.646H97.9906L103.778 124.435ZM126.774 118.592H117.953V125.805H128.2V128H115.269V107.646H128.06V109.855H117.953V116.397H126.774V118.592ZM134.239 125.805H143.885V128H131.541V107.646H134.239V125.805ZM160.521 107.646V121.486C160.511 123.405 159.906 124.976 158.703 126.197C157.51 127.418 155.889 128.103 153.838 128.252L153.126 128.28C150.898 128.28 149.123 127.678 147.799 126.476C146.476 125.274 145.805 123.62 145.786 121.514V107.646H148.442V121.43C148.442 122.902 148.848 124.048 149.659 124.869C150.469 125.679 151.625 126.085 153.126 126.085C154.645 126.085 155.805 125.679 156.606 124.869C157.417 124.058 157.823 122.916 157.823 121.444V107.646H160.521ZM167.44 120.032V128H164.756V107.646H172.263C174.491 107.646 176.234 108.214 177.492 109.351C178.759 110.488 179.393 111.994 179.393 113.867C179.393 115.843 178.773 117.366 177.534 118.438C176.303 119.5 174.537 120.032 172.235 120.032H167.44ZM167.44 117.837H172.263C173.699 117.837 174.798 117.501 175.563 116.83C176.327 116.15 176.709 115.172 176.709 113.895C176.709 112.683 176.327 111.714 175.563 110.987C174.798 110.26 173.75 109.883 172.417 109.855H167.44V117.837ZM193.89 122.506L194.519 125.665L195.288 122.646L199.705 107.646H201.257L205.618 122.646L206.373 125.693L207.044 122.506L210.721 107.646H212.482L207.268 128H205.618L201.005 112.077L200.488 110.064L199.985 112.077L195.26 128H193.61L188.41 107.646H190.171L193.89 122.506ZM230.837 118.927C230.837 120.801 230.511 122.445 229.859 123.862C229.216 125.279 228.293 126.369 227.091 127.133C225.889 127.897 224.5 128.28 222.925 128.28C220.548 128.28 218.629 127.432 217.165 125.735C215.702 124.03 214.971 121.733 214.971 118.843V116.747C214.971 114.892 215.297 113.252 215.949 111.826C216.611 110.391 217.543 109.291 218.745 108.527C219.947 107.753 221.331 107.366 222.897 107.366C224.463 107.366 225.842 107.744 227.035 108.499C228.237 109.254 229.164 110.321 229.817 111.7C230.469 113.079 230.809 114.678 230.837 116.495V118.927ZM229.118 116.719C229.118 114.268 228.563 112.348 227.454 110.959C226.345 109.57 224.826 108.876 222.897 108.876C221.005 108.876 219.495 109.575 218.368 110.973C217.249 112.362 216.69 114.305 216.69 116.802V118.927C216.69 121.341 217.249 123.256 218.368 124.673C219.486 126.08 221.005 126.784 222.925 126.784C224.873 126.784 226.392 126.089 227.482 124.701C228.573 123.303 229.118 121.36 229.118 118.871V116.719ZM242.776 119.528H236.862V128H235.129V107.646H241.741C243.913 107.646 245.609 108.172 246.83 109.226C248.051 110.279 248.661 111.751 248.661 113.643C248.661 114.948 248.279 116.099 247.515 117.096C246.751 118.093 245.725 118.783 244.439 119.165L249.528 127.818V128H247.697L242.776 119.528ZM236.862 118.061H242.133C243.577 118.061 244.738 117.651 245.614 116.83C246.49 116.01 246.928 114.948 246.928 113.643C246.928 112.208 246.471 111.094 245.558 110.302C244.644 109.51 243.363 109.114 241.713 109.114H236.862V118.061ZM257.929 117.893L255.064 120.717V128H253.344V107.646H255.064V118.62L265.492 107.646H267.659L259.132 116.705L268.316 128H266.219L257.929 117.893ZM282.925 122.995C282.925 121.868 282.529 120.978 281.737 120.325C280.944 119.664 279.495 119.039 277.389 118.452C275.283 117.856 273.745 117.208 272.776 116.509C271.396 115.521 270.707 114.226 270.707 112.623C270.707 111.066 271.345 109.803 272.622 108.834C273.908 107.856 275.548 107.366 277.543 107.366C278.894 107.366 280.101 107.627 281.163 108.149C282.235 108.671 283.065 109.398 283.652 110.33C284.239 111.262 284.532 112.301 284.532 113.447H282.799C282.799 112.059 282.324 110.945 281.373 110.106C280.422 109.258 279.146 108.834 277.543 108.834C275.986 108.834 274.747 109.184 273.824 109.883C272.902 110.572 272.44 111.476 272.44 112.595C272.44 113.629 272.855 114.473 273.684 115.125C274.514 115.777 275.842 116.355 277.668 116.858C279.495 117.352 280.879 117.87 281.82 118.41C282.762 118.941 283.47 119.58 283.945 120.325C284.421 121.071 284.658 121.952 284.658 122.967C284.658 124.57 284.015 125.856 282.729 126.826C281.452 127.795 279.765 128.28 277.668 128.28C276.233 128.28 274.915 128.023 273.712 127.511C272.519 126.998 271.611 126.281 270.986 125.358C270.371 124.435 270.064 123.377 270.064 122.185H271.783C271.783 123.62 272.319 124.752 273.391 125.582C274.463 126.411 275.888 126.826 277.668 126.826C279.253 126.826 280.525 126.476 281.485 125.777C282.445 125.078 282.925 124.151 282.925 122.995Z"
    fill="black"
  />
  <path
    opacity="0.5"
    d="M68.0606 92.8052H77.7064V95H65.3625V74.6459H68.0606V92.8052ZM92.273 85.5918H83.4519V92.8052H93.6989V95H80.7679V74.6459H93.5591V76.8547H83.4519V83.3971H92.273V85.5918ZM103.778 91.4352L109.594 74.6459H112.529L104.98 95H102.604L95.0689 74.6459H97.9906L103.778 91.4352ZM126.774 85.5918H117.953V92.8052H128.2V95H115.269V74.6459H128.06V76.8547H117.953V83.3971H126.774V85.5918ZM134.239 92.8052H143.885V95H131.541V74.6459H134.239V92.8052ZM160.521 74.6459V88.4856C160.511 90.4054 159.906 91.9758 158.703 93.1967C157.51 94.4175 155.889 95.1025 153.838 95.2516L153.126 95.2796C150.898 95.2796 149.123 94.6785 147.799 93.4762C146.476 92.274 145.805 90.6198 145.786 88.5135V74.6459H148.442V88.4297C148.442 89.9022 148.848 91.0485 149.659 91.8686C150.469 92.6794 151.625 93.0848 153.126 93.0848C154.645 93.0848 155.805 92.6794 156.606 91.8686C157.417 91.0578 157.823 89.9161 157.823 88.4436V74.6459H160.521ZM167.44 87.0317V95H164.756V74.6459H172.263C174.491 74.6459 176.234 75.2144 177.492 76.3514C178.759 77.4884 179.393 78.9935 179.393 80.8668C179.393 82.8425 178.773 84.3663 177.534 85.4381C176.303 86.5005 174.537 87.0317 172.235 87.0317H167.44ZM167.44 84.8369H172.263C173.699 84.8369 174.798 84.5014 175.563 83.8304C176.327 83.1501 176.709 82.1715 176.709 80.8947C176.709 79.6832 176.327 78.7139 175.563 77.987C174.798 77.2601 173.75 76.8826 172.417 76.8547H167.44V84.8369Z"
    fill="black"
    fill-opacity="0.5"
  />
  <path
    opacity="0.5"
    d="M68.0606 92.8052H77.7064V95H65.3625V74.6459H68.0606V92.8052ZM92.273 85.5918H83.4519V92.8052H93.6989V95H80.7679V74.6459H93.5591V76.8547H83.4519V83.3971H92.273V85.5918ZM103.778 91.4352L109.594 74.6459H112.529L104.98 95H102.604L95.0689 74.6459H97.9906L103.778 91.4352ZM126.774 85.5918H117.953V92.8052H128.2V95H115.269V74.6459H128.06V76.8547H117.953V83.3971H126.774V85.5918ZM134.239 92.8052H143.885V95H131.541V74.6459H134.239V92.8052ZM160.521 74.6459V88.4856C160.511 90.4054 159.906 91.9758 158.703 93.1967C157.51 94.4175 155.889 95.1025 153.838 95.2516L153.126 95.2796C150.898 95.2796 149.123 94.6785 147.799 93.4762C146.476 92.274 145.805 90.6198 145.786 88.5135V74.6459H148.442V88.4297C148.442 89.9022 148.848 91.0485 149.659 91.8686C150.469 92.6794 151.625 93.0848 153.126 93.0848C154.645 93.0848 155.805 92.6794 156.606 91.8686C157.417 91.0578 157.823 89.9161 157.823 88.4436V74.6459H160.521ZM167.44 87.0317V95H164.756V74.6459H172.263C174.491 74.6459 176.234 75.2144 177.492 76.3514C178.759 77.4884 179.393 78.9935 179.393 80.8668C179.393 82.8425 178.773 84.3663 177.534 85.4381C176.303 86.5005 174.537 87.0317 172.235 87.0317H167.44ZM167.44 84.8369H172.263C173.699 84.8369 174.798 84.5014 175.563 83.8304C176.327 83.1501 176.709 82.1715 176.709 80.8947C176.709 79.6832 176.327 78.7139 175.563 77.987C174.798 77.2601 173.75 76.8826 172.417 76.8547H167.44V84.8369Z"
    fill="black"
    fill-opacity="0.5"
  />
  <path
    d="M68.0606 58.8052H77.7064V61H65.3625V40.6459H68.0606V58.8052ZM92.273 51.5918H83.4519V58.8052H93.6989V61H80.7679V40.6459H93.5591V42.8547H83.4519V49.3971H92.273V51.5918ZM103.778 57.4352L109.594 40.6459H112.529L104.98 61H102.604L95.0689 40.6459H97.9906L103.778 57.4352ZM126.774 51.5918H117.953V58.8052H128.2V61H115.269V40.6459H128.06V42.8547H117.953V49.3971H126.774V51.5918ZM134.239 58.8052H143.885V61H131.541V40.6459H134.239V58.8052ZM160.521 40.6459V54.4856C160.511 56.4054 159.906 57.9758 158.703 59.1967C157.51 60.4175 155.889 61.1025 153.838 61.2516L153.126 61.2796C150.898 61.2796 149.123 60.6785 147.799 59.4762C146.476 58.274 145.805 56.6198 145.786 54.5135V40.6459H148.442V54.4297C148.442 55.9022 148.848 57.0485 149.659 57.8686C150.469 58.6794 151.625 59.0848 153.126 59.0848C154.645 59.0848 155.805 58.6794 156.606 57.8686C157.417 57.0578 157.823 55.9161 157.823 54.4436V40.6459H160.521ZM167.44 53.0317V61H164.756V40.6459H172.263C174.491 40.6459 176.234 41.2144 177.492 42.3514C178.759 43.4884 179.393 44.9935 179.393 46.8668C179.393 48.8425 178.773 50.3663 177.534 51.4381C176.303 52.5005 174.537 53.0317 172.235 53.0317H167.44ZM167.44 50.8369H172.263C173.699 50.8369 174.798 50.5014 175.563 49.8304C176.327 49.1501 176.709 48.1715 176.709 46.8947C176.709 45.6832 176.327 44.7139 175.563 43.987C174.798 43.2601 173.75 42.8826 172.417 42.8547H167.44V50.8369Z"
    fill="black"
    fill-opacity="0.1"
  />
  <path
    d="M68.0606 58.8052H77.7064V61H65.3625V40.6459H68.0606V58.8052ZM92.273 51.5918H83.4519V58.8052H93.6989V61H80.7679V40.6459H93.5591V42.8547H83.4519V49.3971H92.273V51.5918ZM103.778 57.4352L109.594 40.6459H112.529L104.98 61H102.604L95.0689 40.6459H97.9906L103.778 57.4352ZM126.774 51.5918H117.953V58.8052H128.2V61H115.269V40.6459H128.06V42.8547H117.953V49.3971H126.774V51.5918ZM134.239 58.8052H143.885V61H131.541V40.6459H134.239V58.8052ZM160.521 40.6459V54.4856C160.511 56.4054 159.906 57.9758 158.703 59.1967C157.51 60.4175 155.889 61.1025 153.838 61.2516L153.126 61.2796C150.898 61.2796 149.123 60.6785 147.799 59.4762C146.476 58.274 145.805 56.6198 145.786 54.5135V40.6459H148.442V54.4297C148.442 55.9022 148.848 57.0485 149.659 57.8686C150.469 58.6794 151.625 59.0848 153.126 59.0848C154.645 59.0848 155.805 58.6794 156.606 57.8686C157.417 57.0578 157.823 55.9161 157.823 54.4436V40.6459H160.521ZM167.44 53.0317V61H164.756V40.6459H172.263C174.491 40.6459 176.234 41.2144 177.492 42.3514C178.759 43.4884 179.393 44.9935 179.393 46.8668C179.393 48.8425 178.773 50.3663 177.534 51.4381C176.303 52.5005 174.537 53.0317 172.235 53.0317H167.44ZM167.44 50.8369H172.263C173.699 50.8369 174.798 50.5014 175.563 49.8304C176.327 49.1501 176.709 48.1715 176.709 46.8947C176.709 45.6832 176.327 44.7139 175.563 43.987C174.798 43.2601 173.75 42.8826 172.417 42.8547H167.44V50.8369Z"
    fill="black"
    fill-opacity="0.1"
  />
</svg>
