<svg
  width="60"
  height="59"
  viewBox="0 0 60 59"
  fill="none"
  xmlns="http://www.w3.org/2000/svg"
>
  <path
    d="M1.86612 53.0942C1.3224 53.0922 0.88111 53.5349 0.883186 54.0806V58.0134C0.881228 58.5591 1.3224 59.0021 1.86612 59H58.5687C59.1124 59.002 59.5537 58.5591 59.5516 58.0134V54.0806C59.5536 53.5349 59.1124 53.0921 58.5687 53.0942H58.4157C58.4876 52.8531 58.5377 52.6026 58.5381 52.3399L58.561 36.2136C58.563 34.7316 57.3471 33.5073 55.8723 33.5073H41.1493C40.0992 31.6368 38.1557 30.4973 36.0032 29.9603V13.6018C36.0032 9.33926 34.7882 5.88398 32.4042 3.5272C30.0801 1.22963 26.6928 0.0806439 22.4514 0.000306913C18.0652 -0.021978 14.6015 1.16946 12.2233 3.52686C9.84499 5.88423 8.6319 9.33985 8.6319 13.6015V29.9523C7.43023 30.2379 6.25375 30.6925 5.21265 31.3246C3.33688 32.4634 1.83762 34.2732 1.82973 36.5836L1.7513 52.0784C1.76393 52.4521 1.85027 52.7838 1.9789 53.0939L1.86612 53.0942ZM31.0235 4.92647C32.9677 6.8485 34.045 9.70971 34.045 13.6018V29.634C33.702 29.6043 33.3587 29.5824 33.018 29.5824L26.606 29.5898L26.2809 26.8356C27.2541 26.3884 28.1054 25.7835 28.7975 25.0353C30.3176 23.3919 31.0915 21.1494 31.1095 18.7379L31.1669 10.9914C31.1718 10.1782 30.2461 9.71164 29.5988 10.2007C29.5988 10.2007 29.1574 10.5357 28.6311 10.788C28.368 10.9142 28.0841 11.012 27.893 11.0413C27.3512 11.1921 26.8336 9.83426 26.5926 9.30811C26.2266 8.48963 25.9787 7.74007 25.9787 7.74007C25.8408 7.32064 25.4411 7.04498 25.0015 7.06634C24.6088 7.08491 24.2647 7.33565 24.1276 7.7055C24.1276 7.7055 23.845 8.47576 23.3971 9.3292C22.9492 10.1827 22.2437 11.0726 21.9514 11.2293C21.1939 11.6355 19.283 11.7142 17.6524 11.5422C16.0219 11.3702 14.6673 11.0489 14.6673 11.0489C14.0535 10.9003 13.4622 11.3653 13.4587 11.999L13.4376 18.7243C13.4298 21.1423 14.2092 23.3915 15.7363 25.0351C16.438 25.7904 17.3021 26.4007 18.2911 26.8489L17.9699 29.5781L11.5157 29.5967C11.2111 29.5976 10.9012 29.6153 10.5902 29.6391V13.6011C10.5902 9.7081 11.6579 6.83944 13.5964 4.91797C15.5349 2.99649 18.4239 1.94499 22.307 1.94488C26.1902 1.94477 29.0792 3.00338 31.0235 4.92545L31.0235 4.92647ZM26.6002 12.6959C27.127 13.0332 27.7162 13.0599 28.197 12.9856C28.5745 12.9273 28.8852 12.7851 29.1953 12.6517L29.1589 18.7245C29.1441 20.724 28.5075 22.4644 27.3652 23.6994C26.2228 24.9344 24.5651 25.709 22.2765 25.709C19.9878 25.709 18.314 24.9285 17.1667 23.6937C16.0194 22.4589 15.3892 20.7234 15.3959 18.7303L15.4112 13.168C15.9939 13.2869 16.3284 13.3826 17.4421 13.5C19.2141 13.6868 21.2887 13.8161 22.8769 12.9646C23.9363 12.3965 24.5045 11.3351 25.0015 10.3965C25.3732 11.2353 25.7216 12.1335 26.6002 12.6958L26.6002 12.6959ZM24.3819 27.4595L24.7032 30.1754L22.3281 32.3039L19.8746 30.1503L20.192 27.4652C20.8506 27.6001 21.5448 27.6762 22.2765 27.6762C23.0169 27.6762 23.7181 27.597 24.3819 27.4592L24.3819 27.4595ZM11.5158 31.5629L18.4824 31.5407L21.6855 34.3487C22.0552 34.6748 22.6086 34.6748 22.9783 34.3487L26.1088 31.5561L33.018 31.5487C35.188 31.5506 37.3562 32.276 38.6651 33.5064H29.8875C28.4128 33.5064 27.201 34.7266 27.1988 36.2049L27.1777 52.3389C27.1774 52.5874 27.2212 52.8238 27.2848 53.0529L4.72216 53.064C4.51917 53.0715 4.26825 52.9705 4.05572 52.7532C3.84319 52.5356 3.71669 52.2267 3.70959 52.0277L3.78988 36.5866C3.79476 35.1113 4.7236 33.9229 6.23194 33.0072C7.74029 32.0916 9.77273 31.5671 11.5157 31.562L11.5158 31.5629ZM55.8723 35.4747C56.2961 35.4747 56.6016 35.7825 56.6009 36.2059L56.5798 52.3399C56.5792 52.767 56.2673 53.073 55.8436 53.073H29.8665C29.4427 53.073 29.1277 52.7633 29.1283 52.3399L29.1589 36.2136C29.1595 35.7865 29.4638 35.4747 29.8875 35.4747H55.8723ZM9.63593 39.2825C9.09519 39.29 8.66197 39.7341 8.66829 40.2768L8.65301 49.148C8.65105 49.6937 9.09223 50.1366 9.63595 50.1345L22.3568 50.0974C23.6916 50.1271 23.6916 48.1023 22.3568 48.132L10.6112 48.169L10.6265 40.2767C10.6334 39.725 10.1857 39.2761 9.63593 39.2825ZM42.8685 41.2116C41.1961 41.2116 39.8183 42.5944 39.8183 44.2729C39.8183 45.9513 41.1961 47.3342 42.8685 47.3342C44.5408 47.3342 45.9186 45.9513 45.9186 44.2729C45.9186 42.5944 44.5408 41.2116 42.8685 41.2116ZM42.8685 43.1769C43.4825 43.1769 43.9604 43.6565 43.9604 44.2729C43.9604 44.8891 43.4825 45.3688 42.8685 45.3688C42.2544 45.3688 41.7784 44.8891 41.7784 44.2729C41.7784 43.6565 42.2544 43.1769 42.8685 43.1769ZM2.84142 55.0595H57.5915V57.0326H2.84142V55.0595Z"
    fill="black"
  />
</svg>
